<svg xmlns="http://www.w3.org/2000/svg" version="1.1" xmlns:xlink="http://www.w3.org/1999/xlink" xmlns:svgjs="http://svgjs.dev/svgjs" width="1500" height="723" viewBox="0 0 1500 723"><g transform="matrix(1,0,0,1,-0.9078758725418083,-0.6253674191084428)"><svg viewBox="0 0 396 191" data-background-color="#13472e" preserveAspectRatio="xMidYMid meet" height="723" width="1500" xmlns="http://www.w3.org/2000/svg" xmlns:xlink="http://www.w3.org/1999/xlink"><g id="tight-bounds" transform="matrix(1,0,0,1,0.2398979369298786,0.16520771376170273)"><svg viewBox="0 0 395.52 190.66930754406656" height="190.66930754406656" width="395.52"><g><svg viewBox="0 0 395.52 190.66930754406656" height="190.66930754406656" width="395.52"><g transform="matrix(1,0,0,1,0,125.21397281273205)"><svg viewBox="0 0 395.52 65.4553347313345" height="65.4553347313345" width="395.52"><g id="textblocktransform"><svg viewBox="0 0 395.52 65.4553347313345" height="65.4553347313345" width="395.52" id="textblock"><g><svg viewBox="0 0 395.52 65.4553347313345" height="65.4553347313345" width="395.52"><g transform="matrix(1,0,0,1,0,0)"><svg width="395.52" viewBox="0.023149999999999282 -30.7457466796875 271.26756 44.89255667968749" height="65.4553347313345" data-palette-color="#92b19f"><path d="M3.762-20.435l3.165-0.471 5.066 34.025-3.166 0.471zM9.239-4.356l11.177-1.664 0.217 1.454-11.177 1.664zM6.779-20.884l13.264-1.975 0.225 1.514-13.264 1.974zM17.8-4.235l2.819-0.42 0.477 3.205-0.484 0.072-0.109-0.732c-0.096-0.646-0.407-1.17-0.932-1.57-0.526-0.407-1.112-0.562-1.757-0.466v0zM19.468-9.064l0.484-0.072 0.479 3.215-2.819 0.42-0.015-0.099c0.641-0.129 1.155-0.462 1.54-0.998 0.385-0.536 0.529-1.13 0.432-1.783v0zM17.377-21.067l2.869-0.427 0.484 3.255-0.484 0.072-0.109-0.732c-0.096-0.646-0.413-1.169-0.952-1.567-0.538-0.398-1.133-0.549-1.786-0.452v0zM19.913-23.729v0l0.209 1.405-6.004 0.347c0.712-0.106 1.456-0.267 2.233-0.484 0.784-0.211 1.506-0.433 2.165-0.666 0.66-0.233 1.125-0.434 1.397-0.602zM8.299 10.039l0.148-0.022 0.529 3.551-3.887 0.579-0.073-0.485c0 0 0.105-0.016 0.317-0.047 0.211-0.031 0.317-0.047 0.316-0.047v0c0.837-0.125 1.512-0.532 2.023-1.221 0.511-0.689 0.72-1.459 0.627-2.308zM3.91-20.457l0.529 3.551-0.148 0.022c-0.126-0.844-0.54-1.52-1.243-2.029-0.709-0.508-1.482-0.699-2.32-0.575v0c0 0-0.099 0.015-0.296 0.044-0.191 0.028-0.287 0.043-0.287 0.043v0l-0.122-0.477zM11.844 13.141l-0.528-3.551 0.148-0.022c0.159 0.839 0.579 1.515 1.262 2.026 0.689 0.511 1.456 0.703 2.3 0.578v0c0 0 0.099-0.015 0.297-0.044 0.191-0.028 0.303-0.045 0.336-0.05v0l0.072 0.484zM29.208-18.965l3.13-0.35 2.068 18.454c0.354 3.16 1.438 5.561 3.252 7.203 1.814 1.642 4.122 2.305 6.925 1.991v0c3.094-0.347 5.429-1.48 7.005-3.401 1.582-1.928 2.205-4.389 1.87-7.384v0l-2.128-18.991 2.246-0.252 2.127 18.991c0.379 3.385-0.404 6.187-2.348 8.404-1.939 2.21-4.797 3.526-8.574 3.949v0c-3.743 0.419-6.824-0.225-9.243-1.933-2.419-1.708-3.817-4.255-4.196-7.64v0zM26.137-18.621l3.17-0.355 0.29 2.584-0.099 0.011c-0.098-0.579-0.389-1.05-0.873-1.411-0.483-0.355-1.052-0.496-1.708-0.423v0c0 0-0.123 0.014-0.367 0.041-0.239 0.027-0.358 0.04-0.358 0.04v0zM32.239-19.304l3.17-0.355 0.055 0.486c0 0-0.123 0.014-0.368 0.042-0.239 0.027-0.358 0.04-0.358 0.04v0c-0.623 0.07-1.147 0.333-1.571 0.79-0.424 0.463-0.604 0.987-0.539 1.569v0l-0.099 0.012zM48.259-21.099l3.17-0.355 0.29 2.583-0.1 0.012c-0.065-0.583-0.35-1.054-0.853-1.414-0.496-0.354-1.072-0.494-1.727-0.421v0c0 0-0.123 0.014-0.368 0.042-0.239 0.027-0.358 0.04-0.358 0.04v0zM53.476-21.684l3.18-0.356 0.055 0.487c0 0-0.123 0.014-0.368 0.041-0.245 0.027-0.368 0.041-0.368 0.041v0c-0.616 0.069-1.13 0.331-1.542 0.787-0.411 0.462-0.601 0.986-0.568 1.573v0l-0.099 0.011zM67.614-22.844v0l6.323-0.462c1.536-0.112 2.929-0.033 4.178 0.236 1.25 0.27 2.332 0.715 3.246 1.337 0.921 0.621 1.644 1.407 2.168 2.359 0.53 0.944 0.841 2.038 0.931 3.281v0c0.1 1.37-0.133 2.667-0.698 3.891-0.566 1.224-1.403 2.255-2.512 3.091-1.102 0.836-2.382 1.387-3.84 1.654v0c0.569 0.192 1.251 0.654 2.047 1.385 0.789 0.731 1.473 1.453 2.053 2.166v0c0 0 0.234 0.27 0.701 0.811 0.467 0.541 1.064 1.202 1.789 1.985 0.732 0.782 1.452 1.525 2.158 2.229v0c0.746 0.701 1.426 1.31 2.039 1.826 0.612 0.51 1.262 0.897 1.949 1.161 0.694 0.263 1.484 0.363 2.368 0.298v0l0.036 0.489-1.526 0.112c-1.795 0.131-3.288 0.009-4.478-0.365-1.197-0.374-2.179-0.867-2.946-1.48-0.767-0.619-1.436-1.219-2.006-1.798v0c-0.138-0.157-0.468-0.554-0.989-1.191-0.527-0.63-1.095-1.317-1.705-2.062-0.616-0.744-1.176-1.418-1.682-2.023-0.499-0.605-0.803-0.971-0.912-1.096v0c-0.713-0.797-1.52-1.5-2.42-2.109-0.9-0.609-1.822-0.88-2.767-0.811v0l-0.035-0.489c0 0 0.26-0.012 0.779-0.037 0.527-0.018 1.198-0.074 2.013-0.167v0c0.908-0.1 1.817-0.24 2.727-0.419 0.903-0.18 1.735-0.595 2.496-1.246 0.755-0.643 1.312-1.67 1.67-3.079v0c0.107-0.369 0.172-0.798 0.197-1.288 0.031-0.497 0.01-1.007-0.062-1.53v0c-0.1-0.908-0.329-1.711-0.687-2.406-0.365-0.702-0.853-1.291-1.463-1.768-0.61-0.484-1.318-0.843-2.124-1.078-0.806-0.235-1.699-0.334-2.678-0.296v0c-1.541 0.046-2.882 0.127-4.023 0.244-1.141 0.117-1.713 0.159-1.716 0.125v0c-0.002-0.033-0.053-0.17-0.15-0.41-0.104-0.24-0.205-0.48-0.303-0.72-0.097-0.234-0.146-0.35-0.146-0.35zM65.061-22.658l3.141-0.229 2.147 29.401-3.141 0.23zM67.029 3.608l0.1-0.007 0.817 3.089-4.169 0.304-0.036-0.488c0 0 0.116-0.009 0.349-0.026 0.226-0.017 0.339-0.025 0.339-0.025v0c0.785-0.057 1.42-0.368 1.908-0.931 0.481-0.556 0.712-1.195 0.692-1.916zM65.799-22.712l-0.364 3.125-0.099 0.007c-0.088-0.749-0.409-1.35-0.964-1.804-0.561-0.447-1.233-0.642-2.018-0.585v0c0 0-0.113 0.008-0.34 0.025-0.233 0.017-0.349 0.025-0.349 0.025v0l-0.035-0.488zM69.611 6.568l0.36-3.174 0.15-0.011c0.086 0.716 0.407 1.314 0.963 1.794 0.564 0.487 1.238 0.702 2.022 0.645v0c0 0 0.106-0.008 0.319-0.024 0.213-0.016 0.319-0.023 0.319-0.023v0l0.086 0.485zM96.186-20.279l-0.662-5.091 28.071 24.715 0.668 5.241zM96.392 1.786l0.15-0.005 0.103 3.049-3.688 0.124-0.016-0.489c0 0 0.14-0.005 0.42-0.014 0.28-0.009 0.42-0.014 0.419-0.015v0c0.753-0.025 1.381-0.294 1.884-0.804 0.51-0.511 0.752-1.126 0.728-1.846zM98.451 1.717l0.15-0.005c0.024 0.72 0.315 1.317 0.871 1.791 0.556 0.475 1.194 0.7 1.914 0.676v0c0 0 0.14-0.005 0.42-0.014 0.28-0.009 0.42-0.014 0.42-0.014v0l0.016 0.489-3.688 0.125zM95.034-25.353l0.49-0.017 2.201 2.677 0.979 27.453-2.209 0.075-0.814-24.067c-0.056-1.666-0.178-3.102-0.366-4.31-0.188-1.208-0.281-1.812-0.281-1.811zM121.084-25.494l2.159-0.073 0.807 23.866c0.035 1.046 0.103 2.051 0.202 3.015 0.099 0.964 0.199 1.748 0.3 2.351 0.1 0.604 0.151 0.905 0.151 0.906v0l-0.44 0.015-2.247-2.536zM123.345-22.529l-0.149 0.005-0.103-3.038 3.688-0.125 0.016 0.49c0 0-0.14 0.005-0.42 0.014-0.28 0.009-0.42 0.014-0.419 0.014v0c-0.72 0.024-1.341 0.289-1.865 0.794-0.523 0.511-0.772 1.127-0.748 1.846zM121.287-22.459l-0.1 0.003c-0.058-0.718-0.358-1.315-0.901-1.79-0.536-0.469-1.181-0.69-1.934-0.665v0c0 0-0.14 0.005-0.42 0.014-0.28 0.009-0.42 0.014-0.419 0.014v0l-0.017-0.49 3.688-0.124zM135.679-25.699l3.1-0.01 0.096 29.48-3.1 0.01zM135.765 0.641l0.15-0.001 0.01 3.14-4.18 0.014-0.001-0.49c0 0 0.117 0 0.35-0.001 0.227-0.001 0.34-0.001 0.34-0.001v0c0.92-0.003 1.696-0.269 2.327-0.798 0.638-0.522 0.973-1.143 1.004-1.863zM138.725 3.771l-0.01-3.14 0.15 0c0.036 0.72 0.374 1.339 1.016 1.856 0.635 0.525 1.413 0.785 2.333 0.783v0c0 0 0.107 0 0.32-0.001 0.213-0.001 0.32-0.001 0.32-0.001v0l0.051 0.489zM138.789-22.569l-0.15 0-0.01-3.14 4.18-0.013-0.048 0.49c0 0-0.107 0-0.32 0.001-0.213 0.001-0.32 0.001-0.32 0.001v0c-0.92 0.003-1.696 0.259-2.328 0.767-0.638 0.509-0.973 1.14-1.004 1.894zM135.829-25.7l0.01 3.14-0.15 0.001c-0.036-0.753-0.375-1.382-1.016-1.887-0.635-0.505-1.412-0.755-2.332-0.752v0c-0.033 0-0.157 0.001-0.37 0.001-0.213 0.001-0.32 0.001-0.32 0.001v0l-0.002-0.49zM179.002-9.638l0.39 0.01-0.796 7.702c-0.891 1.383-1.997 2.608-3.319 3.673-1.322 1.058-2.868 1.884-4.638 2.477-1.77 0.593-3.784 0.859-6.043 0.799v0c-3.405-0.124-6.413-0.958-9.026-2.502-2.613-1.544-4.63-3.672-6.052-6.384-1.415-2.705-2.074-5.877-1.977-9.516v0c0.095-3.565 0.915-6.665 2.459-9.298 1.544-2.626 3.672-4.65 6.384-6.072 2.706-1.422 5.861-2.084 9.467-1.988v0c2.419 0.065 4.596 0.443 6.532 1.135 1.929 0.692 3.6 1.533 5.014 2.525v0l0.795 6.944-0.44-0.012c-0.643-2.898-2.057-5.123-4.243-6.676-2.186-1.546-4.752-2.358-7.698-2.436v0c-2.886-0.077-5.403 0.536-7.551 1.839-2.149 1.303-3.836 3.159-5.061 5.567-1.231 2.408-1.891 5.248-1.978 8.52v0c-0.088 3.279 0.419 6.16 1.52 8.644 1.094 2.49 2.662 4.449 4.705 5.877 2.042 1.435 4.439 2.219 7.189 2.353v0c2.326 0.062 4.49-0.314 6.493-1.127 2.009-0.813 3.71-2.192 5.102-4.135 1.399-1.95 2.323-4.59 2.772-7.919zM187.918-24.191l3.143 0.218-1.284 18.526c-0.22 3.172 0.415 5.729 1.905 7.67 1.489 1.941 3.641 3.009 6.454 3.203v0c3.106 0.215 5.607-0.48 7.502-2.086 1.903-1.612 2.958-3.922 3.166-6.928v0l1.321-19.065 2.254 0.157-1.32 19.064c-0.235 3.399-1.509 6.013-3.821 7.845-2.305 1.825-5.353 2.606-9.144 2.343v0c-3.758-0.26-6.673-1.448-8.745-3.562-2.072-2.115-2.991-4.872-2.755-8.27v0zM184.835-24.404l3.183 0.22-0.18 2.594-0.1-0.007c0.007-0.588-0.194-1.103-0.604-1.545-0.411-0.436-0.945-0.677-1.604-0.723v0c0 0-0.123-0.009-0.369-0.025-0.239-0.017-0.359-0.025-0.359-0.025v0zM190.961-23.98l3.182 0.221-0.034 0.488c0 0-0.123-0.009-0.369-0.025-0.239-0.017-0.359-0.025-0.359-0.025v0c-0.625-0.043-1.188 0.122-1.688 0.495-0.501 0.38-0.771 0.862-0.812 1.447v0l-0.1-0.007zM207.042-22.866l3.183 0.22-0.18 2.594-0.1-0.007c0.041-0.585-0.154-1.1-0.584-1.544-0.424-0.437-0.965-0.678-1.624-0.724v0c0 0-0.123-0.009-0.369-0.025-0.239-0.017-0.359-0.025-0.36-0.025v0zM212.28-22.503l3.192 0.221-0.034 0.489c0 0-0.123-0.009-0.369-0.026-0.246-0.017-0.369-0.026-0.369-0.025v0c-0.619-0.043-1.171 0.123-1.658 0.496-0.487 0.381-0.768 0.862-0.842 1.445v0l-0.1-0.006zM226.396-21.104v0l6.303 0.682c1.531 0.166 2.887 0.494 4.068 0.984 1.181 0.49 2.165 1.123 2.952 1.899 0.794 0.777 1.364 1.68 1.709 2.709 0.352 1.024 0.461 2.155 0.326 3.395v0c-0.148 1.365-0.61 2.599-1.386 3.703-0.777 1.103-1.785 1.966-3.027 2.589-1.234 0.624-2.593 0.936-4.074 0.937v0c0.525 0.292 1.113 0.868 1.764 1.73 0.644 0.861 1.188 1.694 1.63 2.5v0c0 0 0.181 0.308 0.544 0.924 0.362 0.616 0.83 1.374 1.404 2.274 0.58 0.901 1.154 1.761 1.722 2.58v0c0.608 0.824 1.167 1.545 1.677 2.163 0.51 0.612 1.08 1.109 1.709 1.493 0.636 0.384 1.394 0.624 2.276 0.719v0l-0.053 0.487-1.521-0.165c-1.79-0.194-3.236-0.582-4.34-1.163-1.11-0.583-1.988-1.244-2.632-1.985-0.643-0.747-1.193-1.457-1.65-2.13v0c-0.108-0.179-0.361-0.629-0.759-1.35-0.405-0.714-0.841-1.493-1.306-2.334-0.472-0.842-0.902-1.606-1.291-2.292-0.382-0.685-0.615-1.099-0.701-1.243v0c-0.558-0.912-1.226-1.749-2.001-2.51-0.776-0.761-1.634-1.193-2.576-1.294v0l0.053-0.488c0 0 0.258 0.035 0.773 0.104 0.521 0.077 1.192 0.142 2.011 0.198v0c0.912 0.065 1.831 0.091 2.757 0.077 0.92-0.014 1.813-0.273 2.68-0.776 0.858-0.497 1.591-1.407 2.196-2.73v0c0.171-0.344 0.313-0.754 0.425-1.231 0.119-0.483 0.191-0.989 0.214-1.516v0c0.065-0.912-0.016-1.742-0.243-2.49-0.233-0.756-0.607-1.424-1.121-2.003-0.513-0.585-1.145-1.066-1.896-1.442-0.751-0.376-1.611-0.634-2.582-0.772v0c-1.524-0.232-2.858-0.393-4.001-0.484-1.144-0.09-1.714-0.152-1.71-0.185v0c0.004-0.033-0.021-0.177-0.074-0.43-0.06-0.255-0.116-0.509-0.169-0.763-0.054-0.247-0.081-0.371-0.08-0.371zM223.851-21.379l3.131 0.339-3.173 29.308-3.131-0.339zM221.065 4.813l0.1 0.011 0.248 3.185-4.155-0.45 0.052-0.487c0 0 0.116 0.013 0.348 0.038 0.225 0.024 0.338 0.037 0.338 0.036v0c0.782 0.085 1.463-0.106 2.044-0.573 0.573-0.461 0.915-1.048 1.025-1.76zM224.586-21.3l-0.919 3.009-0.099-0.011c0.048-0.753-0.16-1.402-0.624-1.948-0.471-0.541-1.098-0.853-1.88-0.938v0c0 0-0.113-0.012-0.338-0.037-0.232-0.025-0.348-0.038-0.348-0.037v0l0.052-0.488zM223.074 8.189l0.924-3.058 0.149 0.016c-0.044 0.719 0.164 1.366 0.625 1.938 0.467 0.58 1.091 0.913 1.874 0.998v0c0 0 0.106 0.011 0.318 0.034 0.212 0.023 0.318 0.034 0.318 0.034v0l-0.003 0.493zM255.02-17.761l3.119 0.439-4.11 29.192-3.119-0.439zM254.142 10.351l13.18 1.855-0.301 1.493-13.091-1.843zM256.088-3.473l10.893 1.534-0.206 1.465-10.893-1.533zM258.04-17.336l13.141 1.85-0.212 1.505-13.141-1.85zM270.328 7.065l0.495 0.07-3.663 6.583-7.397-1.041 1.865-1.272c1.624 0.229 2.965 0.175 4.022-0.161 1.056-0.329 1.949-0.863 2.68-1.602 0.737-0.738 1.403-1.597 1.998-2.577zM264.263-0.928l2.526 0.355-0.391 2.773-0.534-0.076 0.089-0.633c0.078-0.555-0.016-1.056-0.283-1.504-0.267-0.448-0.74-0.72-1.42-0.816v0zM266.823-4.688l0.534 0.075-0.39 2.773-2.525-0.356 0.014-0.099c0.68 0.096 1.21-0.035 1.59-0.392 0.381-0.364 0.61-0.82 0.687-1.368v0zM268.019-14.548l2.971 0.418-0.473 3.357-0.545-0.076 0.102-0.723c0.097-0.687-0.039-1.301-0.407-1.845-0.367-0.55-0.923-0.877-1.669-0.982v0zM271.291-16.269v0l-0.179 1.268-5.487-1.267c1.01 0.142 2.095 0.204 3.256 0.185 1.161-0.018 1.964-0.08 2.41-0.186zM251.348 8.321l0.099 0.014 0.196 3.199-4.238-0.597 0.068-0.485c0 0 0.116 0.016 0.347 0.049 0.224 0.032 0.337 0.047 0.336 0.047v0c0.812 0.114 1.515-0.053 2.111-0.501 0.587-0.442 0.948-1.018 1.081-1.726zM255.753-17.658l-1.065 2.97-0.099-0.014c0.072-0.751-0.115-1.406-0.561-1.967-0.454-0.555-1.087-0.89-1.899-1.005v0c0 0-0.112-0.016-0.336-0.047-0.231-0.033-0.347-0.049-0.347-0.049v0l0.069-0.485z" opacity="1" transform="matrix(1,0,0,1,0,0)" fill="#92b19f" class="wordmark-text-0" data-fill-palette-color="primary" id="text-0"></path></svg></g></svg></g></svg></g></svg></g><g transform="matrix(1,0,0,1,161.28826096084617,0)"><svg viewBox="0 0 72.94347807830762 105.90673159529922" height="105.90673159529922" width="72.94347807830762"><g><svg xmlns="http://www.w3.org/2000/svg" xmlns:xlink="http://www.w3.org/1999/xlink" version="1.0" x="0" y="0" viewBox="17.106 5.1766152 61.844 89.7913848" enable-background="new 0 0 100 100" xml:space="preserve" height="105.90673159529922" width="72.94347807830762" class="icon-icon-0" data-fill-palette-color="accent" id="icon-0"><circle cx="47.5848846" cy="58.8970032" r="3.5" fill="#d09632" data-fill-palette-color="accent"></circle><circle cx="47.5848846" cy="80.8466187" r="3.5" fill="#d09632" data-fill-palette-color="accent"></circle><path d="M65.696 33.726H58.05V45.39H17.106V94.968H78.95V45.39H65.696zM72.143 88.52H23.026V73.172H72.143zM72.143 51.223V66.572H23.026V51.222z" fill="#d09632" data-fill-palette-color="accent"></path><polygon points="67.9260941,5.1766152 55.8206635,5.1766152 45.2937164,28.5065022 77.5431213,28.5065022 " fill="#d09632" data-fill-palette-color="accent"></polygon></svg></g></svg></g><g></g></svg></g><defs></defs></svg><rect width="395.52" height="190.66930754406656" fill="none" stroke="none" visibility="hidden"></rect></g></svg></g></svg>